<svg xmlns="http://www.w3.org/2000/svg" enable-background="new 0 0 512 512" viewBox="0 0 512 512" id="twitter">
  <path fill="#212121" d="M462.39,5.231C460.641,2.008,457.268,0,453.6,0H378.4c-3.384,0-6.538,1.711-8.383,4.548
		L237.199,208.757L104.383,4.548c-3.01-4.629-9.205-5.941-13.835-2.931c-4.63,3.011-5.942,9.205-2.931,13.835L225.27,227.097
		L50.017,496.548c-2,3.074-2.156,6.997-0.407,10.221c1.749,3.224,5.123,5.231,8.79,5.231h75.2c3.384,0,6.538-1.711,8.383-4.548
		l132.815-204.204l132.819,204.204c1.916,2.946,5.121,4.548,8.393,4.548c1.868,0,3.76-0.523,5.442-1.618
		c4.63-3.011,5.942-9.206,2.931-13.835l-137.656-211.64L461.982,15.452C463.982,12.378,464.139,8.455,462.39,5.231z"></path>
</svg>
