<svg width="18" height="18" viewBox="0 0 18 18" fill="none" xmlns="http://www.w3.org/2000/svg">
<g clip-path="url(#clip0_65_1307)">
<path d="M9 0C7.21997 0 5.47991 0.527841 3.99987 1.51677C2.51983 2.50571 1.36628 3.91131 0.685088 5.55585C0.00389957 7.20038 -0.17433 9.00998 0.172937 10.7558C0.520204 12.5016 1.37737 14.1053 2.63604 15.364C3.89472 16.6226 5.49836 17.4798 7.24419 17.8271C8.99002 18.1743 10.7996 17.9961 12.4442 17.3149C14.0887 16.6337 15.4943 15.4802 16.4832 14.0001C17.4722 12.5201 18 10.78 18 9C17.9974 6.61384 17.0484 4.32616 15.3611 2.63889C13.6738 0.951621 11.3862 0.00258081 9 0V0ZM5.25 6.75H7.5C7.69892 6.75 7.88968 6.82902 8.03033 6.96967C8.17099 7.11032 8.25 7.30109 8.25 7.5C8.25 7.69891 8.17099 7.88968 8.03033 8.03033C7.88968 8.17098 7.69892 8.25 7.5 8.25H5.25C5.05109 8.25 4.86033 8.17098 4.71967 8.03033C4.57902 7.88968 4.5 7.69891 4.5 7.5C4.5 7.30109 4.57902 7.11032 4.71967 6.96967C4.86033 6.82902 5.05109 6.75 5.25 6.75ZM13.2495 11.8095C12.0586 12.8269 10.5643 13.4213 9 13.5C7.43567 13.4213 5.9414 12.8269 4.7505 11.8095C4.60212 11.677 4.51243 11.491 4.50118 11.2924C4.49561 11.1941 4.50946 11.0956 4.54194 11.0026C4.57443 10.9097 4.62491 10.824 4.6905 10.7505C4.7561 10.677 4.83552 10.6172 4.92424 10.5744C5.01296 10.5316 5.10924 10.5067 5.20758 10.5012C5.40618 10.4899 5.60112 10.558 5.7495 10.6905C6.66617 11.4616 7.80481 11.9203 9 12C10.1959 11.9202 11.3352 11.461 12.252 10.689C12.3256 10.6235 12.4113 10.5731 12.5044 10.5408C12.5974 10.5084 12.6959 10.4947 12.7942 10.5004C12.8926 10.5061 12.9888 10.5312 13.0775 10.5741C13.1662 10.617 13.2455 10.6769 13.311 10.7505C13.3765 10.8241 13.4269 10.9098 13.4592 11.0029C13.4916 11.0959 13.5053 11.1944 13.4996 11.2927C13.4939 11.3911 13.4688 11.4873 13.4259 11.576C13.383 11.6647 13.3231 11.744 13.2495 11.8095ZM12 8.25C11.1713 8.25 10.5 8.25 10.5 7.5C10.5 7.10218 10.658 6.72065 10.9393 6.43934C11.2206 6.15804 11.6022 6 12 6C12.3978 6 12.7794 6.15804 13.0607 6.43934C13.342 6.72065 13.5 7.10218 13.5 7.5C13.5 8.25 12.8288 8.25 12 8.25Z" fill="#3B3A3A"/>
</g>
<defs>
<clipPath id="clip0_65_1307">
<rect width="18" height="18" fill="white"/>
</clipPath>
</defs>
</svg>
