<svg width="25" height="24" viewBox="0 0 25 24" fill="none" xmlns="http://www.w3.org/2000/svg">
<g clip-path="url(#clip0_65_1305)">
<path d="M0.5 19.0001C0.501588 20.3257 1.02888 21.5966 1.96622 22.5339C2.90356 23.4712 4.17441 23.9985 5.5 24.0001H19.5C20.8256 23.9985 22.0964 23.4712 23.0338 22.5339C23.9711 21.5966 24.4984 20.3257 24.5 19.0001V10.0001H0.5V19.0001ZM17.5 14.5001C17.7967 14.5001 18.0867 14.5881 18.3334 14.7529C18.58 14.9177 18.7723 15.152 18.8858 15.4261C18.9993 15.7002 19.0291 16.0018 18.9712 16.2928C18.9133 16.5837 18.7704 16.851 18.5607 17.0608C18.3509 17.2706 18.0836 17.4134 17.7926 17.4713C17.5017 17.5292 17.2001 17.4995 16.926 17.3859C16.6519 17.2724 16.4176 17.0802 16.2528 16.8335C16.088 16.5868 16 16.2968 16 16.0001C16 15.6023 16.158 15.2208 16.4393 14.9395C16.7206 14.6582 17.1022 14.5001 17.5 14.5001ZM12.5 14.5001C12.7967 14.5001 13.0867 14.5881 13.3334 14.7529C13.58 14.9177 13.7723 15.152 13.8858 15.4261C13.9994 15.7002 14.0291 16.0018 13.9712 16.2928C13.9133 16.5837 13.7704 16.851 13.5607 17.0608C13.3509 17.2706 13.0836 17.4134 12.7926 17.4713C12.5017 17.5292 12.2001 17.4995 11.926 17.3859C11.6519 17.2724 11.4176 17.0802 11.2528 16.8335C11.088 16.5868 11 16.2968 11 16.0001C11 15.6023 11.158 15.2208 11.4393 14.9395C11.7206 14.6582 12.1022 14.5001 12.5 14.5001ZM7.5 14.5001C7.79667 14.5001 8.08668 14.5881 8.33336 14.7529C8.58003 14.9177 8.77229 15.152 8.88582 15.4261C8.99935 15.7002 9.02906 16.0018 8.97118 16.2928C8.9133 16.5837 8.77044 16.851 8.56066 17.0608C8.35088 17.2706 8.08361 17.4134 7.79264 17.4713C7.50166 17.5292 7.20006 17.4995 6.92597 17.3859C6.65189 17.2724 6.41762 17.0802 6.2528 16.8335C6.08797 16.5868 6 16.2968 6 16.0001C6 15.6023 6.15804 15.2208 6.43934 14.9395C6.72064 14.6582 7.10218 14.5001 7.5 14.5001Z" fill="#3B3A3A"/>
<path d="M19.5 2H18.5V1C18.5 0.734784 18.3946 0.48043 18.2071 0.292893C18.0196 0.105357 17.7652 0 17.5 0C17.2348 0 16.9804 0.105357 16.7929 0.292893C16.6054 0.48043 16.5 0.734784 16.5 1V2H8.5V1C8.5 0.734784 8.39464 0.48043 8.20711 0.292893C8.01957 0.105357 7.76522 0 7.5 0C7.23478 0 6.98043 0.105357 6.79289 0.292893C6.60536 0.48043 6.5 0.734784 6.5 1V2H5.5C4.17441 2.00159 2.90356 2.52888 1.96622 3.46622C1.02888 4.40356 0.501588 5.67441 0.5 7L0.5 8H24.5V7C24.4984 5.67441 23.9711 4.40356 23.0338 3.46622C22.0964 2.52888 20.8256 2.00159 19.5 2Z" fill="#3B3A3A"/>
</g>
<defs>
<clipPath id="clip0_65_1305">
<rect width="24" height="24" fill="white" transform="translate(0.5)"/>
</clipPath>
</defs>
</svg>
